<svg xmlns="http://www.w3.org/2000/svg" xmlns:xlink="http://www.w3.org/1999/xlink" version="1.1" data-diagram-type="CLASS" style="width:460px;height:74px;background:#FFFFFF;" width="460px" height="74px" viewBox="0 0 460 74" zoomAndPan="magnify" preserveAspectRatio="none" contentStyleType="text/css"><?plantuml 1.2026.8?><defs/><g font-family="sans-serif" lengthAdjust="spacing"><!--class SecurityConfig--><g class="entity" data-qualified-name="SecurityConfig" id="ent0001" data-source-line="15"><rect x="7" y="7" width="117.508" height="52.133" fill="#FFF" style="stroke:#1D2B4F;stroke-width:0.5;" rx="2.5" ry="2.5"/><ellipse cx="22.415" cy="22" rx="10" ry="10" fill="#ADD1B2" style="stroke:#181818;stroke-width:1;"/><path d="M24.249,26.248 Q23.839,26.459 23.388,26.564 Q22.937,26.67 22.438,26.67 Q20.669,26.67 19.737,25.504 Q18.806,24.338 18.806,22.135 Q18.806,19.926 19.737,18.76 Q20.669,17.594 22.438,17.594 Q22.937,17.594 23.394,17.699 Q23.851,17.805 24.249,18.016 L24.249,19.938 Q23.804,19.527 23.385,19.337 Q22.966,19.146 22.521,19.146 Q21.571,19.146 21.088,19.899 Q20.604,20.652 20.604,22.135 Q20.604,23.611 21.088,24.364 Q21.571,25.117 22.521,25.117 Q22.966,25.117 23.385,24.927 Q23.804,24.736 24.249,24.326 Z " fill="#000"/><text x="35.729" y="26.535" fill="#000" font-size="12" textLength="84.363" font-family="Calibri">SecurityConfig</text><line x1="8" y1="37" x2="123.508" y2="37" style="stroke:#1D2B4F;stroke-width:0.5;"/><g data-visibility-modifier="PUBLIC_METHOD"><ellipse cx="18" cy="49.566" rx="3" ry="3" fill="#84BE84" style="stroke:#038048;stroke-width:1;"/></g><text x="26" y="52.602" fill="#000" font-size="12" textLength="92.508" font-family="Calibri">filterChain(http)</text></g><g class="entity" data-qualified-name="GMN2" id="ent0003" data-source-line="19"><path d="M159.65,6.87 L159.65,29.07 L125,33.07 L159.65,37.07 L159.65,59.268 A0,0 0 0 0 159.65,59.268 L445.863,59.268 A0,0 0 0 0 445.863,59.268 L445.863,16.87 L435.863,6.87 L159.65,6.87 A0,0 0 0 0 159.65,6.87" style="stroke:#B38600;stroke-width:0.5;" fill="#DDEBF7"/><path d="M435.863,6.87 L435.863,16.87 L445.863,16.87 L435.863,6.87" style="stroke:#B38600;stroke-width:0.5;" fill="#DDEBF7"/><text x="165.65" y="23.472" fill="#000" font-size="12" textLength="130.131" font-family="Calibri">/api/dashboard/** -></text><text x="165.65" y="37.604" fill="#000" font-size="12" textLength="210.732" font-family="Calibri">hasAnyRole("SUPERVISOR", "ADMIN")</text><text x="165.65" y="51.737" fill="#000" font-size="12" textLength="265.213" font-family="Calibri">/api/supervisor/** -> hasRole("SUPERVISOR")</text></g></g></svg>