<svg xmlns="http://www.w3.org/2000/svg" xmlns:xlink="http://www.w3.org/1999/xlink" version="1.1" data-diagram-type="CLASS" style="width:612px;height:315px;background:#FFFFFF;" width="612px" height="315px" viewBox="0 0 612 315" zoomAndPan="magnify" preserveAspectRatio="none" contentStyleType="text/css"><?plantuml 1.2026.8?><defs/><g font-family="sans-serif" lengthAdjust="spacing"><!--class DashboardServiceImpl--><g class="entity" data-qualified-name="DashboardServiceImpl" id="ent0001" data-source-line="15"><rect x="203.75" y="7" width="202.967" height="52.133" fill="#FFF" style="stroke:#1D2B4F;stroke-width:0.5;" rx="2.5" ry="2.5"/><ellipse cx="237.335" cy="22" rx="10" ry="10" fill="#ADD1B2" style="stroke:#181818;stroke-width:1;"/><path d="M239.169,26.248 Q238.758,26.459 238.307,26.564 Q237.856,26.67 237.358,26.67 Q235.589,26.67 234.657,25.504 Q233.725,24.338 233.725,22.135 Q233.725,19.926 234.657,18.76 Q235.589,17.594 237.358,17.594 Q237.856,17.594 238.313,17.699 Q238.77,17.805 239.169,18.016 L239.169,19.938 Q238.723,19.527 238.304,19.337 Q237.885,19.146 237.44,19.146 Q236.491,19.146 236.008,19.899 Q235.524,20.652 235.524,22.135 Q235.524,23.611 236.008,24.364 Q236.491,25.117 237.44,25.117 Q237.885,25.117 238.304,24.927 Q238.723,24.736 239.169,24.326 Z " fill="#000"/><text x="254.687" y="26.535" fill="#000" font-size="12" textLength="129.445" font-family="Calibri">DashboardServiceImpl</text><line x1="204.75" y1="37" x2="405.717" y2="37" style="stroke:#1D2B4F;stroke-width:0.5;"/><g data-visibility-modifier="PUBLIC_METHOD"><ellipse cx="214.75" cy="49.566" rx="3" ry="3" fill="#84BE84" style="stroke:#038048;stroke-width:1;"/></g><text x="222.75" y="52.602" fill="#000" font-size="12" textLength="177.967" font-family="Calibri">obtenerEstadisticasGenerales()</text></g><!--class Credito--><g class="entity" data-qualified-name="Credito" id="ent0002" data-source-line="18"><rect x="7" y="142.2" width="164.477" height="52.133" fill="#FFF" style="stroke:#1D2B4F;stroke-width:0.5;" rx="2.5" ry="2.5"/><ellipse cx="63.849" cy="157.2" rx="10" ry="10" fill="#ADD1B2" style="stroke:#181818;stroke-width:1;"/><path d="M65.683,161.448 Q65.272,161.659 64.821,161.764 Q64.37,161.87 63.872,161.87 Q62.103,161.87 61.171,160.704 Q60.239,159.538 60.239,157.335 Q60.239,155.126 61.171,153.96 Q62.103,152.794 63.872,152.794 Q64.37,152.794 64.827,152.899 Q65.284,153.005 65.683,153.216 L65.683,155.138 Q65.237,154.727 64.818,154.537 Q64.399,154.346 63.954,154.346 Q63.005,154.346 62.521,155.099 Q62.038,155.852 62.038,157.335 Q62.038,158.811 62.521,159.564 Q63.005,160.317 63.954,160.317 Q64.399,160.317 64.818,160.127 Q65.237,159.936 65.683,159.526 Z " fill="#000"/><text x="82.849" y="161.735" fill="#000" font-size="12" textLength="42.779" font-family="Calibri">Credito</text><line x1="8" y1="172.2" x2="170.477" y2="172.2" style="stroke:#1D2B4F;stroke-width:0.5;"/><g data-visibility-modifier="PUBLIC_METHOD"><ellipse cx="18" cy="184.766" rx="3" ry="3" fill="#84BE84" style="stroke:#038048;stroke-width:1;"/></g><text x="26" y="187.802" fill="#000" font-size="12" textLength="139.477" font-family="Calibri">estado() : EstadoCredito</text></g><!--class CreditoRepository--><g class="entity" data-qualified-name="CreditoRepository" id="ent0004" data-source-line="22"><rect x="206.88" y="135.13" width="196.709" height="66.266" fill="#DDEBF7" style="stroke:#1D2B4F;stroke-width:0.5;" rx="2.5" ry="2.5"/><ellipse cx="248.934" cy="150.13" rx="10" ry="10" fill="#B4A7E5" style="stroke:#181818;stroke-width:1;"/><path d="M246.442,147.405 L246.442,145.882 L251.651,145.882 L251.651,147.405 L249.91,147.405 L249.91,153.107 L251.651,153.107 L251.651,154.63 L246.442,154.63 L246.442,153.107 L248.182,153.107 L248.182,147.405 Z " fill="#000"/><text x="267.934" y="154.665" fill="#000" font-size="12" textLength="104.602" font-style="italic" font-family="Calibri">CreditoRepository</text><line x1="207.88" y1="165.13" x2="402.589" y2="165.13" style="stroke:#1D2B4F;stroke-width:0.5;"/><g data-visibility-modifier="PUBLIC_METHOD"><ellipse cx="217.88" cy="177.696" rx="3" ry="3" fill="#84BE84" style="stroke:#038048;stroke-width:1;"/></g><text x="225.88" y="180.732" fill="#000" font-size="12" textLength="146.08" font-family="Calibri">buscarTodosConCuotas()</text><g data-visibility-modifier="PUBLIC_METHOD"><ellipse cx="217.88" cy="191.829" rx="3" ry="3" fill="#84BE84" style="stroke:#038048;stroke-width:1;"/></g><text x="225.88" y="194.864" fill="#000" font-size="12" textLength="171.709" font-family="Calibri">sumarDeudaOriginalVigente()</text></g><!--class CobranzaRepository--><g class="entity" data-qualified-name="CobranzaRepository" id="ent0005" data-source-line="26"><rect x="438.8" y="142.2" width="158.881" height="52.133" fill="#DDEBF7" style="stroke:#1D2B4F;stroke-width:0.5;" rx="2.5" ry="2.5"/><ellipse cx="457.904" cy="157.2" rx="10" ry="10" fill="#B4A7E5" style="stroke:#181818;stroke-width:1;"/><path d="M455.412,154.475 L455.412,152.952 L460.621,152.952 L460.621,154.475 L458.88,154.475 L458.88,160.177 L460.621,160.177 L460.621,161.7 L455.412,161.7 L455.412,160.177 L457.152,160.177 L457.152,154.475 Z " fill="#000"/><text x="472.038" y="161.735" fill="#000" font-size="12" textLength="117.539" font-style="italic" font-family="Calibri">CobranzaRepository</text><line x1="439.8" y1="172.2" x2="596.681" y2="172.2" style="stroke:#1D2B4F;stroke-width:0.5;"/><g data-visibility-modifier="PUBLIC_METHOD"><ellipse cx="449.8" cy="184.766" rx="3" ry="3" fill="#84BE84" style="stroke:#038048;stroke-width:1;"/></g><text x="457.8" y="187.802" fill="#000" font-size="12" textLength="133.881" font-family="Calibri">sumarImporteVigente()</text></g><g class="entity" data-qualified-name="GMN8" id="ent0009" data-source-line="32"><path d="M227.51,262.39 L227.51,300.656 A0,0 0 0 0 227.51,300.656 L382.971,300.656 A0,0 0 0 0 382.971,300.656 L382.971,272.39 L372.971,262.39 L309.24,262.39 L305.24,201.74 L301.24,262.39 L227.51,262.39 A0,0 0 0 0 227.51,262.39" style="stroke:#B38600;stroke-width:0.5;" fill="#DDEBF7"/><path d="M372.971,262.39 L372.971,272.39 L382.971,272.39 L372.971,262.39" style="stroke:#B38600;stroke-width:0.5;" fill="#DDEBF7"/><text x="233.51" y="278.992" fill="#000" font-size="12" textLength="134.461" font-family="Calibri">WHERE anulado = false</text><text x="233.51" y="293.124" fill="#000" font-size="12" textLength="114.979" font-family="Calibri">SUM(deudaOriginal)</text></g><g class="entity" data-qualified-name="GMN11" id="ent0012" data-source-line="36"><path d="M440.88,269.46 L440.88,293.593 A0,0 0 0 0 440.88,293.593 L595.597,293.593 A0,0 0 0 0 595.597,293.593 L595.597,279.46 L585.597,269.46 L522.24,269.46 L518.24,194.79 L514.24,269.46 L440.88,269.46 A0,0 0 0 0 440.88,269.46" style="stroke:#B38600;stroke-width:0.5;" fill="#DDEBF7"/><path d="M585.597,269.46 L585.597,279.46 L595.597,279.46 L585.597,269.46" style="stroke:#B38600;stroke-width:0.5;" fill="#DDEBF7"/><text x="446.88" y="286.062" fill="#000" font-size="12" textLength="133.717" font-family="Calibri">WHERE anulada = false</text></g><!--link DashboardServiceImpl to Credito--><g class="link" data-entity-1="ent0001" data-entity-2="ent0002" id="lnk3" data-source-line="21" data-link-type="dependency"><path d="M203.57,51.56 C177.59,59.72 151.13,71.66 130.24,89.13 C113.9,102.78 104.96,119.963 98.6,137.093" style="stroke:#2E75B6;stroke-width:1;stroke-dasharray:7,7;" fill="none" id="DashboardServiceImpl-to-Credito" codeLine="21"/><polygon points="96.86,141.78,103.742,134.735,98.6,137.093,96.243,131.951,96.86,141.78" fill="#2E75B6" style="stroke:#2E75B6;stroke-width:1;stroke-linejoin:miter;stroke-miterlimit:10;"/><text x="131.24" y="101.732" fill="#000" font-size="12" textLength="165.393" font-family="Calibri">cuenta estado() == VIGENTE</text></g><!--link DashboardServiceImpl to CreditoRepository--><g class="link" data-entity-1="ent0001" data-entity-2="ent0004" id="lnk6" data-source-line="29" data-link-type="dependency"><path d="M305.24,59.43 C305.24,80.87 305.24,106.7 305.24,129.91" style="stroke:#2E75B6;stroke-width:1;" fill="none" id="DashboardServiceImpl-to-CreditoRepository" codeLine="29"/><polygon points="305.24,134.91,309.24,125.91,305.24,129.91,301.24,125.91,305.24,134.91" fill="#2E75B6" style="stroke:#2E75B6;stroke-width:1;stroke-linejoin:miter;stroke-miterlimit:10;"/></g><!--link DashboardServiceImpl to CobranzaRepository--><g class="link" data-entity-1="ent0001" data-entity-2="ent0005" id="lnk7" data-source-line="30" data-link-type="dependency"><path d="M346.05,59.59 C383.86,83.23 435.55,115.56 473.32,139.17" style="stroke:#2E75B6;stroke-width:1;" fill="none" id="DashboardServiceImpl-to-CobranzaRepository" codeLine="30"/><polygon points="477.56,141.82,472.049,133.658,473.32,139.17,467.808,140.441,477.56,141.82" fill="#2E75B6" style="stroke:#2E75B6;stroke-width:1;stroke-linejoin:miter;stroke-miterlimit:10;"/></g></g></svg>