<svg xmlns="http://www.w3.org/2000/svg" xmlns:xlink="http://www.w3.org/1999/xlink" version="1.1" data-diagram-type="SEQUENCE" style="width:477px;height:375px;background:#FFFFFF;" width="477px" height="375px" viewBox="0 0 477 375" zoomAndPan="magnify" preserveAspectRatio="none" contentStyleType="text/css"><?plantuml 1.2026.8?><defs/><g font-family="sans-serif" lengthAdjust="spacing"><g><title>Vista</title><rect x="23.773" y="84.133" width="8" height="205.93" fill="#000" fill-opacity="0"/><line x1="27.273" y1="84.133" x2="27.273" y2="290.063" style="stroke:#1D2B4F;stroke-width:0.5;stroke-dasharray:5,5;"/></g><g><title>CreditoController</title><rect x="161.996" y="84.133" width="8" height="205.93" fill="#000" fill-opacity="0"/><line x1="165.496" y1="84.133" x2="165.496" y2="290.063" style="stroke:#1D2B4F;stroke-width:0.5;stroke-dasharray:5,5;"/></g><g><title>CreditoServiceImpl</title><rect x="291.113" y="84.133" width="8" height="205.93" fill="#000" fill-opacity="0"/><line x1="294.613" y1="84.133" x2="294.613" y2="290.063" style="stroke:#1D2B4F;stroke-width:0.5;stroke-dasharray:5,5;"/></g><g><title>Credito</title><rect x="391.019" y="84.133" width="8" height="205.93" fill="#000" fill-opacity="0"/><line x1="394.519" y1="84.133" x2="394.519" y2="290.063" style="stroke:#1D2B4F;stroke-width:0.5;stroke-dasharray:5,5;"/></g><text x="10" y="81.602" fill="#000" font-size="12" textLength="28.547" font-family="Calibri">Vista</text><ellipse cx="27.273" cy="18.5" rx="8" ry="8" fill="#E2E2F0" style="stroke:#181818;stroke-width:0.5;"/><path d="M27.273,26.5 L27.273,53.5 M14.273,34.5 L40.273,34.5 M27.273,53.5 L14.273,68.5 M27.273,53.5 L40.273,68.5" style="stroke:#181818;stroke-width:0.5;" fill="none"/><rect x="107.895" y="55" width="115.203" height="28.133" fill="#FFF" style="stroke:#1D2B4F;stroke-width:0.5;" rx="2.5" ry="2.5"/><text x="114.895" y="73.602" fill="#000" font-size="12" textLength="101.203" font-family="Calibri">CreditoController</text><rect x="233.098" y="55" width="123.031" height="28.133" fill="#FFF" style="stroke:#1D2B4F;stroke-width:0.5;" rx="2.5" ry="2.5"/><text x="240.098" y="73.602" fill="#000" font-size="12" textLength="109.031" font-family="Calibri">CreditoServiceImpl</text><rect x="366.129" y="55" width="56.779" height="28.133" fill="#FFF" style="stroke:#1D2B4F;stroke-width:0.5;" rx="2.5" ry="2.5"/><text x="373.129" y="73.602" fill="#000" font-size="12" textLength="42.779" font-family="Calibri">Credito</text><text x="10" y="301.664" fill="#000" font-size="12" textLength="28.547" font-family="Calibri">Vista</text><ellipse cx="27.273" cy="312.695" rx="8" ry="8" fill="#E2E2F0" style="stroke:#181818;stroke-width:0.5;"/><path d="M27.273,320.695 L27.273,347.695 M14.273,328.695 L40.273,328.695 M27.273,347.695 L14.273,362.695 M27.273,347.695 L40.273,362.695" style="stroke:#181818;stroke-width:0.5;" fill="none"/><rect x="107.895" y="290.063" width="115.203" height="28.133" fill="#FFF" style="stroke:#1D2B4F;stroke-width:0.5;" rx="2.5" ry="2.5"/><text x="114.895" y="308.664" fill="#000" font-size="12" textLength="101.203" font-family="Calibri">CreditoController</text><rect x="233.098" y="290.063" width="123.031" height="28.133" fill="#FFF" style="stroke:#1D2B4F;stroke-width:0.5;" rx="2.5" ry="2.5"/><text x="240.098" y="308.664" fill="#000" font-size="12" textLength="109.031" font-family="Calibri">CreditoServiceImpl</text><rect x="366.129" y="290.063" width="56.779" height="28.133" fill="#FFF" style="stroke:#1D2B4F;stroke-width:0.5;" rx="2.5" ry="2.5"/><text x="373.129" y="308.664" fill="#000" font-size="12" textLength="42.779" font-family="Calibri">Credito</text><line x1="27.273" y1="126.398" x2="69.273" y2="126.398" style="stroke:#2E75B6;stroke-width:1;"/><line x1="69.273" y1="126.398" x2="69.273" y2="139.398" style="stroke:#2E75B6;stroke-width:1;"/><line x1="28.273" y1="139.398" x2="69.273" y2="139.398" style="stroke:#2E75B6;stroke-width:1;"/><polygon points="38.273,135.398,28.273,139.398,38.273,143.398,34.273,139.398" fill="#2E75B6" style="stroke:#2E75B6;stroke-width:1;stroke-linejoin:miter;stroke-miterlimit:10;"/><text x="34.273" y="107.734" fill="#000" font-size="12" textLength="100.91" font-family="Calibri">oculta el botón si</text><text x="34.273" y="121.867" fill="#000" font-size="12" textLength="120.68" font-family="Calibri">!puedeAnularCredito</text><polygon points="153.496,163.531,163.496,167.531,153.496,171.531,157.496,167.531" fill="#2E75B6" style="stroke:#2E75B6;stroke-width:1;stroke-linejoin:miter;stroke-miterlimit:10;"/><line x1="27.273" y1="167.531" x2="159.496" y2="167.531" style="stroke:#2E75B6;stroke-width:1;"/><text x="34.273" y="163" fill="#000" font-size="12" textLength="114.223" font-family="Calibri">DELETE /anular/{id}</text><polygon points="282.613,191.664,292.613,195.664,282.613,199.664,286.613,195.664" fill="#2E75B6" style="stroke:#2E75B6;stroke-width:1;stroke-linejoin:miter;stroke-miterlimit:10;"/><line x1="165.496" y1="195.664" x2="288.613" y2="195.664" style="stroke:#2E75B6;stroke-width:1;"/><text x="172.496" y="191.133" fill="#000" font-size="12" textLength="98.133" font-family="Calibri">anularCredito(id)</text><path d="M299.613,208.664 L299.613,246.664 L460.613,246.664 L460.613,218.664 L450.613,208.664 L299.613,208.664" style="stroke:#B38600;stroke-width:0.5;" fill="#FFE0E0"/><path d="M450.613,208.664 L450.613,218.664 L460.613,218.664 L450.613,208.664" style="stroke:#B38600;stroke-width:0.5;" fill="#FFE0E0"/><text x="305.613" y="225.266" fill="#000" font-size="12" textLength="121.207" font-family="Calibri">no sabe quién anula:</text><text x="305.613" y="239.398" fill="#000" font-size="12" textLength="140.994" font-family="Calibri">nadie consulta Permisos</text><polygon points="382.519,268.063,392.519,272.063,382.519,276.063,386.519,272.063" fill="#2E75B6" style="stroke:#2E75B6;stroke-width:1;stroke-linejoin:miter;stroke-miterlimit:10;"/><line x1="294.613" y1="272.063" x2="388.519" y2="272.063" style="stroke:#2E75B6;stroke-width:1;"/><text x="301.613" y="267.531" fill="#000" font-size="12" textLength="55.723" font-family="Calibri">anular(...)</text></g></svg>