<svg xmlns="http://www.w3.org/2000/svg" xmlns:xlink="http://www.w3.org/1999/xlink" version="1.1" data-diagram-type="CLASS" style="width:659px;height:577px;background:#FFFFFF;" width="659px" height="577px" viewBox="0 0 659 577" zoomAndPan="magnify" preserveAspectRatio="none" contentStyleType="text/css"><?plantuml 1.2026.8?><defs/><g font-family="sans-serif" lengthAdjust="spacing"><!--class EstadoCredito--><g class="entity" data-qualified-name="EstadoCredito" id="ent0001" data-source-line="15"><rect x="7" y="369.33" width="111.439" height="80.398" fill="#DDEBF7" style="stroke:#1D2B4F;stroke-width:0.5;" rx="2.5" ry="2.5"/><ellipse cx="21" cy="384.33" rx="10" ry="10" fill="#EB937F" style="stroke:#181818;stroke-width:1;"/><path d="M23.934,388.83 L18.484,388.83 L18.484,380.082 L23.934,380.082 L23.934,381.605 L20.213,381.605 L20.213,383.492 L23.582,383.492 L23.582,385.016 L20.213,385.016 L20.213,387.307 L23.934,387.307 Z " fill="#000"/><text x="34" y="388.865" fill="#000" font-size="12" textLength="81.439" font-family="Calibri">EstadoCredito</text><line x1="8" y1="399.33" x2="117.439" y2="399.33" style="stroke:#1D2B4F;stroke-width:0.5;"/><text x="13" y="414.932" fill="#000" font-size="12" textLength="49.436" font-family="Calibri">VIGENTE</text><text x="13" y="429.064" fill="#000" font-size="12" textLength="73.242" font-family="Calibri">CANCELADO</text><text x="13" y="443.197" fill="#000" font-size="12" textLength="58.447" font-family="Calibri">ANULADO</text></g><!--class Credito--><g class="entity" data-qualified-name="Credito" id="ent0002" data-source-line="20"><rect x="163.48" y="120.13" width="164.477" height="173.195" fill="#DDEBF7" style="stroke:#1D2B4F;stroke-width:0.5;" rx="2.5" ry="2.5"/><ellipse cx="220.329" cy="135.13" rx="10" ry="10" fill="#ADD1B2" style="stroke:#181818;stroke-width:1;"/><path d="M222.163,139.378 Q221.752,139.589 221.301,139.694 Q220.85,139.8 220.352,139.8 Q218.583,139.8 217.651,138.634 Q216.719,137.468 216.719,135.265 Q216.719,133.056 217.651,131.89 Q218.583,130.724 220.352,130.724 Q220.85,130.724 221.307,130.829 Q221.764,130.935 222.163,131.146 L222.163,133.068 Q221.717,132.657 221.298,132.467 Q220.879,132.276 220.434,132.276 Q219.485,132.276 219.001,133.029 Q218.518,133.782 218.518,135.265 Q218.518,136.741 219.001,137.494 Q219.485,138.247 220.434,138.247 Q220.879,138.247 221.298,138.057 Q221.717,137.866 222.163,137.456 Z " fill="#000"/><text x="239.329" y="139.665" fill="#000" font-size="12" textLength="42.779" font-family="Calibri">Credito</text><line x1="164.48" y1="150.13" x2="326.957" y2="150.13" style="stroke:#1D2B4F;stroke-width:0.5;"/><g data-visibility-modifier="PRIVATE_FIELD"><rect x="171.48" y="159.696" width="6" height="6" fill="none" style="stroke:#C82930;stroke-width:1;"/></g><text x="182.48" y="165.732" fill="#000" font-size="12" textLength="104.455" font-family="Calibri">anulado : boolean</text><line x1="164.48" y1="172.263" x2="326.957" y2="172.263" style="stroke:#1D2B4F;stroke-width:0.5;"/><g data-visibility-modifier="PUBLIC_METHOD"><ellipse cx="174.48" cy="184.829" rx="3" ry="3" fill="#84BE84" style="stroke:#038048;stroke-width:1;"/></g><text x="182.48" y="187.864" fill="#000" font-size="12" textLength="132.756" font-family="Calibri">generarPlanDeCuotas()</text><g data-visibility-modifier="PUBLIC_METHOD"><ellipse cx="174.48" cy="198.962" rx="3" ry="3" fill="#84BE84" style="stroke:#038048;stroke-width:1;"/></g><text x="182.48" y="201.997" fill="#000" font-size="12" textLength="66.814" font-family="Calibri">getCuotas()</text><g data-visibility-modifier="PUBLIC_METHOD"><ellipse cx="174.48" cy="213.095" rx="3" ry="3" fill="#84BE84" style="stroke:#038048;stroke-width:1;"/></g><text x="182.48" y="216.13" fill="#000" font-size="12" textLength="139.477" font-family="Calibri">estado() : EstadoCredito</text><g data-visibility-modifier="PUBLIC_METHOD"><ellipse cx="174.48" cy="227.228" rx="3" ry="3" fill="#84BE84" style="stroke:#038048;stroke-width:1;"/></g><text x="182.48" y="230.263" fill="#000" font-size="12" textLength="114.773" font-family="Calibri">saldo() : BigDecimal</text><g data-visibility-modifier="PUBLIC_METHOD"><ellipse cx="174.48" cy="241.36" rx="3" ry="3" fill="#84BE84" style="stroke:#038048;stroke-width:1;"/></g><text x="182.48" y="244.396" fill="#000" font-size="12" textLength="91.951" font-family="Calibri">estaCancelado()</text><g data-visibility-modifier="PUBLIC_METHOD"><ellipse cx="174.48" cy="255.493" rx="3" ry="3" fill="#84BE84" style="stroke:#038048;stroke-width:1;"/></g><text x="182.48" y="258.528" fill="#000" font-size="12" textLength="98.414" font-family="Calibri">tieneCobranzas()</text><g data-visibility-modifier="PUBLIC_METHOD"><ellipse cx="174.48" cy="269.626" rx="3" ry="3" fill="#84BE84" style="stroke:#038048;stroke-width:1;"/></g><text x="182.48" y="272.661" fill="#000" font-size="12" textLength="94.711" font-family="Calibri">puedeAnularse()</text><g data-visibility-modifier="PUBLIC_METHOD"><ellipse cx="174.48" cy="283.759" rx="3" ry="3" fill="#84BE84" style="stroke:#038048;stroke-width:1;"/></g><text x="182.48" y="286.794" fill="#000" font-size="12" textLength="44.332" font-family="Calibri">anular()</text></g><!--class Cuota--><g class="entity" data-qualified-name="Cuota" id="ent0003" data-source-line="31"><rect x="153.82" y="376.4" width="183.801" height="66.266" fill="#FFF" style="stroke:#1D2B4F;stroke-width:0.5;" rx="2.5" ry="2.5"/><ellipse cx="224.602" cy="391.4" rx="10" ry="10" fill="#ADD1B2" style="stroke:#181818;stroke-width:1;"/><path d="M226.436,395.648 Q226.026,395.859 225.575,395.964 Q225.124,396.07 224.626,396.07 Q222.856,396.07 221.924,394.904 Q220.993,393.738 220.993,391.535 Q220.993,389.326 221.924,388.16 Q222.856,386.994 224.626,386.994 Q225.124,386.994 225.581,387.099 Q226.038,387.205 226.436,387.416 L226.436,389.338 Q225.991,388.927 225.572,388.737 Q225.153,388.546 224.708,388.546 Q223.758,388.546 223.275,389.299 Q222.792,390.052 222.792,391.535 Q222.792,393.011 223.275,393.764 Q223.758,394.517 224.708,394.517 Q225.153,394.517 225.572,394.327 Q225.991,394.136 226.436,393.726 Z " fill="#000"/><text x="243.602" y="395.935" fill="#000" font-size="12" textLength="34.236" font-family="Calibri">Cuota</text><line x1="154.82" y1="406.4" x2="336.621" y2="406.4" style="stroke:#1D2B4F;stroke-width:0.5;"/><g data-visibility-modifier="PUBLIC_METHOD"><ellipse cx="164.82" cy="418.966" rx="3" ry="3" fill="#84BE84" style="stroke:#038048;stroke-width:1;"/></g><text x="172.82" y="422.002" fill="#000" font-size="12" textLength="73.271" font-family="Calibri">estaPagada()</text><g data-visibility-modifier="PUBLIC_METHOD"><ellipse cx="164.82" cy="433.099" rx="3" ry="3" fill="#84BE84" style="stroke:#038048;stroke-width:1;"/></g><text x="172.82" y="436.134" fill="#000" font-size="12" textLength="158.801" font-family="Calibri">registrarCobranza(importe)</text></g><!--class Cobranza--><g class="entity" data-qualified-name="Cobranza" id="ent0004" data-source-line="35"><rect x="181.36" y="510.73" width="128.711" height="52.133" fill="#FFF" style="stroke:#1D2B4F;stroke-width:0.5;" rx="2.5" ry="2.5"/><ellipse cx="214.707" cy="525.73" rx="10" ry="10" fill="#ADD1B2" style="stroke:#181818;stroke-width:1;"/><path d="M216.541,529.978 Q216.131,530.189 215.68,530.294 Q215.229,530.4 214.731,530.4 Q212.961,530.4 212.03,529.234 Q211.098,528.068 211.098,525.865 Q211.098,523.656 212.03,522.49 Q212.961,521.324 214.731,521.324 Q215.229,521.324 215.686,521.429 Q216.143,521.535 216.541,521.746 L216.541,523.668 Q216.096,523.257 215.677,523.067 Q215.258,522.876 214.813,522.876 Q213.864,522.876 213.38,523.629 Q212.897,524.382 212.897,525.865 Q212.897,527.341 213.38,528.094 Q213.864,528.847 214.813,528.847 Q215.258,528.847 215.677,528.657 Q216.096,528.466 216.541,528.056 Z " fill="#000"/><text x="232.007" y="530.265" fill="#000" font-size="12" textLength="55.717" font-family="Calibri">Cobranza</text><line x1="182.36" y1="540.73" x2="309.071" y2="540.73" style="stroke:#1D2B4F;stroke-width:0.5;"/><g data-visibility-modifier="PRIVATE_FIELD"><rect x="189.36" y="550.296" width="6" height="6" fill="none" style="stroke:#C82930;stroke-width:1;"/></g><text x="200.36" y="556.332" fill="#000" font-size="12" textLength="103.711" font-family="Calibri">anulada : boolean</text></g><!--class CreditoServiceImpl--><g class="entity" data-qualified-name="CreditoServiceImpl" id="ent0005" data-source-line="38"><rect x="158.66" y="7" width="174.115" height="52.133" fill="#FFF" style="stroke:#1D2B4F;stroke-width:0.5;" rx="2.5" ry="2.5"/><ellipse cx="188.448" cy="22" rx="10" ry="10" fill="#ADD1B2" style="stroke:#181818;stroke-width:1;"/><path d="M190.282,26.248 Q189.872,26.459 189.42,26.564 Q188.969,26.67 188.471,26.67 Q186.702,26.67 185.77,25.504 Q184.838,24.338 184.838,22.135 Q184.838,19.926 185.77,18.76 Q186.702,17.594 188.471,17.594 Q188.969,17.594 189.426,17.699 Q189.883,17.805 190.282,18.016 L190.282,19.938 Q189.836,19.527 189.418,19.337 Q188.999,19.146 188.553,19.146 Q187.604,19.146 187.121,19.899 Q186.637,20.652 186.637,22.135 Q186.637,23.611 187.121,24.364 Q187.604,25.117 188.553,25.117 Q188.999,25.117 189.418,24.927 Q189.836,24.736 190.282,24.326 Z " fill="#000"/><text x="204.956" y="26.535" fill="#000" font-size="12" textLength="109.031" font-family="Calibri">CreditoServiceImpl</text><line x1="159.66" y1="37" x2="331.775" y2="37" style="stroke:#1D2B4F;stroke-width:0.5;"/><g data-visibility-modifier="PUBLIC_METHOD"><ellipse cx="169.66" cy="49.566" rx="3" ry="3" fill="#84BE84" style="stroke:#038048;stroke-width:1;"/></g><text x="177.66" y="52.602" fill="#000" font-size="12" textLength="149.115" font-family="Calibri">anularCredito(id, usuario)</text></g><g class="entity" data-qualified-name="GMN10" id="ent0011" data-source-line="46"><path d="M372.9,390.4 L372.9,428.666 A0,0 0 0 0 372.9,428.666 L644.535,428.666 A0,0 0 0 0 644.535,428.666 L644.535,400.4 L634.535,390.4 L488.48,390.4 L328.21,270.71 L480.48,390.4 L372.9,390.4 A0,0 0 0 0 372.9,390.4" style="stroke:#B38600;stroke-width:0.5;" fill="#FFF8E1"/><path d="M634.535,390.4 L634.535,400.4 L644.535,400.4 L634.535,390.4" style="stroke:#B38600;stroke-width:0.5;" fill="#FFF8E1"/><text x="378.9" y="407.002" fill="#000" font-size="12" textLength="250.635" font-family="Calibri">cuotas y cobranzas se traen en 2 consultas</text><text x="378.9" y="421.134" fill="#000" font-size="12" textLength="238.354" font-family="Calibri">(JOIN FETCH), sin N+1 ni lazy fuera de tx</text></g><!--link CreditoServiceImpl to Credito--><g class="link" data-entity-1="ent0005" data-entity-2="ent0002" id="lnk6" data-source-line="41" data-link-type="dependency"><path d="M245.72,59.4 C245.72,75.62 245.72,92.72 245.72,114.83" style="stroke:#2E75B6;stroke-width:1;" fill="none" id="CreditoServiceImpl-to-Credito" codeLine="41"/><polygon points="245.72,119.83,249.72,110.83,245.72,114.83,241.72,110.83,245.72,119.83" fill="#2E75B6" style="stroke:#2E75B6;stroke-width:1;stroke-linejoin:miter;stroke-miterlimit:10;"/></g><!--reverse link Credito to Cuota--><g class="link" data-entity-1="ent0002" data-entity-2="ent0003" id="lnk7" data-source-line="42" data-link-type="composition"><path d="M245.72,305.76 C245.72,334.93 245.72,353.74 245.72,376.09" style="stroke:#2E75B6;stroke-width:1;" fill="none" id="Credito-backto-Cuota" codeLine="42"/><polygon points="245.72,293.76,241.72,299.76,245.72,305.76,249.72,299.76,245.72,293.76" fill="#2E75B6" style="stroke:#2E75B6;stroke-width:1;stroke-linejoin:miter;stroke-miterlimit:10;"/><text x="246.72" y="335.932" fill="#000" font-size="12" textLength="79.4" font-family="Calibri">crea y conoce</text><text x="238.465" y="312.86" fill="#000" font-size="12" font-family="Calibri">1</text><text x="223.906" y="365.995" fill="#000" font-size="12" textLength="20.965" font-family="Calibri">1..*</text></g><!--link Cuota to Cobranza--><g class="link" data-entity-1="ent0003" data-entity-2="ent0004" id="lnk8" data-source-line="43" data-link-type="dependency"><path d="M245.72,443.11 C245.72,464.14 245.72,486.08 245.72,505.49" style="stroke:#2E75B6;stroke-width:1;" fill="none" id="Cuota-to-Cobranza" codeLine="43"/><polygon points="245.72,510.49,249.72,501.49,245.72,505.49,241.72,501.49,245.72,510.49" fill="#2E75B6" style="stroke:#2E75B6;stroke-width:1;stroke-linejoin:miter;stroke-miterlimit:10;"/><text x="238.129" y="462.205" fill="#000" font-size="12" font-family="Calibri">1</text><text x="223.52" y="500.405" fill="#000" font-size="12" textLength="20.965" font-family="Calibri">0..*</text></g><!--link Credito to EstadoCredito--><g class="link" data-entity-1="ent0002" data-entity-2="ent0001" id="lnk9" data-source-line="44" data-link-type="dependency"><path d="M167.31,293.76 C143.45,319.95 121.737,343.763 102.127,365.293" style="stroke:#2E75B6;stroke-width:1;stroke-dasharray:7,7;" fill="none" id="Credito-to-EstadoCredito" codeLine="44"/><polygon points="98.76,368.99,107.778,365.03,102.127,365.293,101.863,359.643,98.76,368.99" fill="#2E75B6" style="stroke:#2E75B6;stroke-width:1;stroke-linejoin:miter;stroke-miterlimit:10;"/></g></g></svg>