<svg xmlns="http://www.w3.org/2000/svg" xmlns:xlink="http://www.w3.org/1999/xlink" version="1.1" data-diagram-type="CLASS" style="width:416px;height:88px;background:#FFFFFF;" width="416px" height="88px" viewBox="0 0 416 88" zoomAndPan="magnify" preserveAspectRatio="none" contentStyleType="text/css"><?plantuml 1.2026.8?><defs/><g font-family="sans-serif" lengthAdjust="spacing"><!--class Credito--><g class="entity" data-qualified-name="Credito" id="ent0001" data-source-line="15"><rect x="7" y="7" width="157.551" height="66.266" fill="#FFF" style="stroke:#1D2B4F;stroke-width:0.5;" rx="2.5" ry="2.5"/><ellipse cx="60.386" cy="22" rx="10" ry="10" fill="#ADD1B2" style="stroke:#181818;stroke-width:1;"/><path d="M62.22,26.248 Q61.81,26.459 61.358,26.564 Q60.907,26.67 60.409,26.67 Q58.64,26.67 57.708,25.504 Q56.776,24.338 56.776,22.135 Q56.776,19.926 57.708,18.76 Q58.64,17.594 60.409,17.594 Q60.907,17.594 61.364,17.699 Q61.821,17.805 62.22,18.016 L62.22,19.938 Q61.774,19.527 61.355,19.337 Q60.937,19.146 60.491,19.146 Q59.542,19.146 59.059,19.899 Q58.575,20.652 58.575,22.135 Q58.575,23.611 59.059,24.364 Q59.542,25.117 60.491,25.117 Q60.937,25.117 61.355,24.927 Q61.774,24.736 62.22,24.326 Z " fill="#000"/><text x="79.386" y="26.535" fill="#000" font-size="12" textLength="42.779" font-family="Calibri">Credito</text><line x1="8" y1="37" x2="163.551" y2="37" style="stroke:#1D2B4F;stroke-width:0.5;"/><g data-visibility-modifier="PUBLIC_METHOD"><ellipse cx="18" cy="49.566" rx="3" ry="3" fill="#84BE84" style="stroke:#038048;stroke-width:1;"/></g><text x="26" y="52.602" fill="#000" font-size="12" textLength="93.059" font-family="Calibri">totalADevolver()</text><g data-visibility-modifier="PRIVATE_METHOD"><rect x="15" y="60.699" width="6" height="6" fill="#F24D5C" style="stroke:#C82930;stroke-width:1;"/></g><text x="26" y="66.734" fill="#000" font-size="12" textLength="132.551" font-family="Calibri">calcularImporteCuota()</text></g><g class="entity" data-qualified-name="GMN2" id="ent0003" data-source-line="20"><path d="M199.89,21 L199.89,36.14 L164.72,40.14 L199.89,44.14 L199.89,59.266 A0,0 0 0 0 199.89,59.266 L401.663,59.266 A0,0 0 0 0 401.663,59.266 L401.663,31 L391.663,21 L199.89,21 A0,0 0 0 0 199.89,21" style="stroke:#B38600;stroke-width:0.5;" fill="#FFE0E0"/><path d="M391.663,21 L391.663,31 L401.663,31 L391.663,21" style="stroke:#B38600;stroke-width:0.5;" fill="#FFE0E0"/><text x="205.89" y="37.602" fill="#000" font-size="12" textLength="141.721" font-family="Calibri">interés simple cableado:</text><text x="205.89" y="51.734" fill="#000" font-size="12" textLength="180.773" font-family="Calibri">total = capital * (1 + tasa/100)</text></g></g></svg>