<svg xmlns="http://www.w3.org/2000/svg" xmlns:xlink="http://www.w3.org/1999/xlink" version="1.1" data-diagram-type="CLASS" style="width:758px;height:470px;background:#FFFFFF;" width="758px" height="470px" viewBox="0 0 758 470" zoomAndPan="magnify" preserveAspectRatio="none" contentStyleType="text/css"><?plantuml 1.2026.8?><defs/><g font-family="sans-serif" lengthAdjust="spacing"><!--class Credito--><g class="entity" data-qualified-name="Credito" id="ent0001" data-source-line="11"><rect x="122.21" y="7" width="133.604" height="82.531" fill="#FFF" style="stroke:#1D2B4F;stroke-width:0.5;" rx="2.5" ry="2.5"/><ellipse cx="158.209" cy="26.133" rx="10" ry="10" fill="#ADD1B2" style="stroke:#181818;stroke-width:1;"/><path d="M160.043,30.381 Q159.633,30.592 159.182,30.697 Q158.731,30.803 158.232,30.803 Q156.463,30.803 155.531,29.637 Q154.6,28.471 154.6,26.268 Q154.6,24.059 155.531,22.893 Q156.463,21.727 158.232,21.727 Q158.731,21.727 159.188,21.832 Q159.645,21.938 160.043,22.148 L160.043,24.07 Q159.598,23.66 159.179,23.47 Q158.76,23.279 158.314,23.279 Q157.365,23.279 156.882,24.032 Q156.398,24.785 156.398,26.268 Q156.398,27.744 156.882,28.497 Q157.365,29.25 158.314,29.25 Q158.76,29.25 159.179,29.06 Q159.598,28.869 160.043,28.459 Z " fill="#000"/><text x="174.098" y="23.602" fill="#000" font-size="12" textLength="58.717" font-style="italic" font-family="Calibri">«Context»</text><text x="182.066" y="37.734" fill="#000" font-size="12" textLength="42.779" font-family="Calibri">Credito</text><line x1="123.21" y1="45.266" x2="254.814" y2="45.266" style="stroke:#1D2B4F;stroke-width:0.5;"/><g data-visibility-modifier="PRIVATE_FIELD"><rect x="130.21" y="54.832" width="6" height="6" fill="none" style="stroke:#C82930;stroke-width:1;"/></g><text x="141.21" y="60.867" fill="#000" font-size="12" textLength="108.604" font-family="Calibri">tipoPlan : TipoPlan</text><line x1="123.21" y1="67.398" x2="254.814" y2="67.398" style="stroke:#1D2B4F;stroke-width:0.5;"/><g data-visibility-modifier="PUBLIC_METHOD"><ellipse cx="133.21" cy="79.965" rx="3" ry="3" fill="#84BE84" style="stroke:#038048;stroke-width:1;"/></g><text x="141.21" y="83" fill="#000" font-size="12" textLength="93.059" font-family="Calibri">totalADevolver()</text></g><!--class TipoPlan--><g class="entity" data-qualified-name="TipoPlan" id="ent0002" data-source-line="15"><rect x="184.21" y="149.53" width="177.613" height="88.398" fill="#FFF" style="stroke:#1D2B4F;stroke-width:0.5;" rx="2.5" ry="2.5"/><ellipse cx="243.939" cy="164.53" rx="10" ry="10" fill="#EB937F" style="stroke:#181818;stroke-width:1;"/><path d="M246.872,169.03 L241.423,169.03 L241.423,160.282 L246.872,160.282 L246.872,161.805 L243.151,161.805 L243.151,163.692 L246.521,163.692 L246.521,165.216 L243.151,165.216 L243.151,167.507 L246.872,167.507 Z " fill="#000"/><text x="262.939" y="169.065" fill="#000" font-size="12" textLength="50.156" font-family="Calibri">TipoPlan</text><line x1="185.21" y1="179.53" x2="360.823" y2="179.53" style="stroke:#1D2B4F;stroke-width:0.5;"/><text x="190.21" y="195.132" fill="#000" font-size="12" textLength="92.76" font-family="Calibri">INTERES_SIMPLE</text><text x="190.21" y="209.264" fill="#000" font-size="12" textLength="107.525" font-family="Calibri">SISTEMA_FRANCES</text><line x1="185.21" y1="215.796" x2="360.823" y2="215.796" style="stroke:#1D2B4F;stroke-width:0.5;"/><g data-visibility-modifier="PUBLIC_METHOD"><ellipse cx="195.21" cy="228.362" rx="3" ry="3" fill="#84BE84" style="stroke:#038048;stroke-width:1;"/></g><text x="203.21" y="231.397" fill="#000" font-size="12" textLength="152.613" font-family="Calibri">calculo() : CalculoDeCuota</text></g><!--class CalculoDeCuota--><g class="entity" data-qualified-name="CalculoDeCuota" id="ent0003" data-source-line="20"><rect x="158.84" y="297.93" width="228.344" height="60.398" fill="#FFF" style="stroke:#1D2B4F;stroke-width:0.5;" rx="2.5" ry="2.5"/><ellipse cx="222.641" cy="317.063" rx="10" ry="10" fill="#B4A7E5" style="stroke:#181818;stroke-width:1;"/><path d="M220.149,314.338 L220.149,312.815 L225.358,312.815 L225.358,314.338 L223.617,314.338 L223.617,320.039 L225.358,320.039 L225.358,321.563 L220.149,321.563 L220.149,320.039 L221.889,320.039 L221.889,314.338 Z " fill="#000"/><text x="258.018" y="314.532" fill="#000" font-size="12" textLength="59.988" font-style="italic" font-family="Calibri">«Strategy»</text><text x="241.641" y="328.664" fill="#000" font-size="12" textLength="92.742" font-style="italic" font-family="Calibri">CalculoDeCuota</text><line x1="159.84" y1="336.196" x2="386.184" y2="336.196" style="stroke:#1D2B4F;stroke-width:0.5;"/><g data-visibility-modifier="PUBLIC_METHOD"><ellipse cx="169.84" cy="348.762" rx="3" ry="3" fill="#84BE84" style="stroke:#038048;stroke-width:1;"/></g><text x="177.84" y="351.797" fill="#000" font-size="12" textLength="203.344" font-family="Calibri">importeCuota(capital, tasa, cuotas)</text></g><!--class InteresSimple--><g class="entity" data-qualified-name="InteresSimple" id="ent0004" data-source-line="23"><rect x="401" y="418.32" width="138.025" height="38.266" fill="#FFF" style="stroke:#1D2B4F;stroke-width:0.5;" rx="2.5" ry="2.5"/><ellipse cx="415" cy="437.453" rx="10" ry="10" fill="#ADD1B2" style="stroke:#181818;stroke-width:1;"/><path d="M416.834,441.701 Q416.424,441.912 415.973,442.017 Q415.521,442.123 415.023,442.123 Q413.254,442.123 412.322,440.957 Q411.391,439.791 411.391,437.588 Q411.391,435.379 412.322,434.213 Q413.254,433.047 415.023,433.047 Q415.521,433.047 415.979,433.152 Q416.436,433.258 416.834,433.468 L416.834,435.39 Q416.389,434.98 415.97,434.79 Q415.551,434.599 415.105,434.599 Q414.156,434.599 413.673,435.352 Q413.189,436.105 413.189,437.588 Q413.189,439.064 413.673,439.817 Q414.156,440.57 415.105,440.57 Q415.551,440.57 415.97,440.38 Q416.389,440.189 416.834,439.779 Z " fill="#000"/><text x="426" y="434.922" fill="#000" font-size="12" textLength="112.025" font-style="italic" font-family="Calibri">«ConcreteStrategy»</text><text x="442.696" y="449.054" fill="#000" font-size="12" textLength="78.633" font-family="Calibri">InteresSimple</text></g><!--class SistemaFrances--><g class="entity" data-qualified-name="SistemaFrances" id="ent0005" data-source-line="24"><rect x="7" y="418.32" width="138.025" height="38.266" fill="#FFF" style="stroke:#1D2B4F;stroke-width:0.5;" rx="2.5" ry="2.5"/><ellipse cx="21" cy="437.453" rx="10" ry="10" fill="#ADD1B2" style="stroke:#181818;stroke-width:1;"/><path d="M22.834,441.701 Q22.424,441.912 21.973,442.017 Q21.521,442.123 21.023,442.123 Q19.254,442.123 18.322,440.957 Q17.391,439.791 17.391,437.588 Q17.391,435.379 18.322,434.213 Q19.254,433.047 21.023,433.047 Q21.521,433.047 21.979,433.152 Q22.436,433.258 22.834,433.468 L22.834,435.39 Q22.389,434.98 21.97,434.79 Q21.551,434.599 21.105,434.599 Q20.156,434.599 19.673,435.352 Q19.189,436.105 19.189,437.588 Q19.189,439.064 19.673,439.817 Q20.156,440.57 21.105,440.57 Q21.551,440.57 21.97,440.38 Q22.389,440.189 22.834,439.779 Z " fill="#000"/><text x="32" y="434.922" fill="#000" font-size="12" textLength="112.025" font-style="italic" font-family="Calibri">«ConcreteStrategy»</text><text x="43.303" y="449.054" fill="#000" font-size="12" textLength="89.42" font-family="Calibri">SistemaFrances</text></g><!--class CreditoRequest--><g class="entity" data-qualified-name="CreditoRequest" id="ent0006" data-source-line="25"><rect x="291.21" y="22.2" width="133.604" height="52.133" fill="#FFF" style="stroke:#1D2B4F;stroke-width:0.5;" rx="2.5" ry="2.5"/><ellipse cx="311.627" cy="37.2" rx="10" ry="10" fill="#ADD1B2" style="stroke:#181818;stroke-width:1;"/><path d="M313.461,41.448 Q313.051,41.659 312.6,41.764 Q312.148,41.87 311.65,41.87 Q309.881,41.87 308.949,40.704 Q308.018,39.538 308.018,37.335 Q308.018,35.126 308.949,33.96 Q309.881,32.794 311.65,32.794 Q312.148,32.794 312.605,32.899 Q313.062,33.005 313.461,33.216 L313.461,35.137 Q313.016,34.727 312.597,34.537 Q312.178,34.346 311.732,34.346 Q310.783,34.346 310.3,35.099 Q309.816,35.852 309.816,37.335 Q309.816,38.811 310.3,39.564 Q310.783,40.317 311.732,40.317 Q312.178,40.317 312.597,40.127 Q313.016,39.936 313.461,39.526 Z " fill="#000"/><text x="326.053" y="41.735" fill="#000" font-size="12" textLength="89.344" font-family="Calibri">CreditoRequest</text><line x1="292.21" y1="52.2" x2="423.814" y2="52.2" style="stroke:#1D2B4F;stroke-width:0.5;"/><g data-visibility-modifier="PRIVATE_FIELD"><rect x="299.21" y="61.766" width="6" height="6" fill="none" style="stroke:#C82930;stroke-width:1;"/></g><text x="310.21" y="67.802" fill="#000" font-size="12" textLength="108.604" font-family="Calibri">tipoPlan : TipoPlan</text></g><g class="entity" data-qualified-name="GMN12" id="ent0013" data-source-line="34"><path d="M180.42,425.39 L180.42,433.46 L145.27,437.46 L180.42,441.46 L180.42,449.523 A0,0 0 0 0 180.42,449.523 L365.6,449.523 A0,0 0 0 0 365.6,449.523 L365.6,435.39 L355.6,425.39 L180.42,425.39 A0,0 0 0 0 180.42,425.39" style="stroke:#B38600;stroke-width:0.5;" fill="#E0F0E0"/><path d="M355.6,425.39 L355.6,435.39 L365.6,435.39 L355.6,425.39" style="stroke:#B38600;stroke-width:0.5;" fill="#E0F0E0"/><text x="186.42" y="441.992" fill="#000" font-size="12" textLength="164.18" font-family="Calibri">cuota = C·i / (1 − (1+i)^−n)</text></g><g class="entity" data-qualified-name="GMN15" id="ent0016" data-source-line="37"><path d="M574.16,425.39 L574.16,433.46 L539.41,437.46 L574.16,441.46 L574.16,449.523 A0,0 0 0 0 574.16,449.523 L743.871,449.523 A0,0 0 0 0 743.871,449.523 L743.871,435.39 L733.871,425.39 L574.16,425.39 A0,0 0 0 0 574.16,425.39" style="stroke:#B38600;stroke-width:0.5;" fill="#E0F0E0"/><path d="M733.871,425.39 L733.871,435.39 L743.871,435.39 L733.871,425.39" style="stroke:#B38600;stroke-width:0.5;" fill="#E0F0E0"/><text x="580.16" y="441.992" fill="#000" font-size="12" textLength="148.711" font-family="Calibri">total = C · (1 + tasa/100)</text></g><!--link Credito to TipoPlan--><g class="link" data-entity-1="ent0001" data-entity-2="ent0002" id="lnk7" data-source-line="28" data-link-type="dependency"><path d="M212.86,89.99 C223.68,108.46 233.954,126.015 244.964,144.825" style="stroke:#2E75B6;stroke-width:1;" fill="none" id="Credito-to-TipoPlan" codeLine="28"/><polygon points="247.49,149.14,246.396,139.352,244.964,144.825,239.491,143.393,247.49,149.14" fill="#2E75B6" style="stroke:#2E75B6;stroke-width:1;stroke-linejoin:miter;stroke-miterlimit:10;"/></g><!--link TipoPlan to CalculoDeCuota--><g class="link" data-entity-1="ent0002" data-entity-2="ent0003" id="lnk8" data-source-line="29" data-link-type="dependency"><path d="M273.01,238.08 C273.01,257.54 273.01,274.99 273.01,292.49" style="stroke:#2E75B6;stroke-width:1;" fill="none" id="TipoPlan-to-CalculoDeCuota" codeLine="29"/><polygon points="273.01,297.49,277.01,288.49,273.01,292.49,269.01,288.49,273.01,297.49" fill="#2E75B6" style="stroke:#2E75B6;stroke-width:1;stroke-linejoin:miter;stroke-miterlimit:10;"/></g><!--reverse link CalculoDeCuota to InteresSimple--><g class="link" data-entity-1="ent0003" data-entity-2="ent0004" id="lnk9" data-source-line="30" data-link-type="extension"><path d="M343.177,367.351 C377.907,386.271 406.07,401.62 435.95,417.9" style="stroke:#2E75B6;stroke-width:1;stroke-dasharray:7,7;" fill="none" id="CalculoDeCuota-backto-InteresSimple" codeLine="30"/><polygon points="327.37,358.74,340.306,372.62,346.047,362.082,327.37,358.74" fill="none" style="stroke:#2E75B6;stroke-width:1;stroke-linejoin:miter;stroke-miterlimit:10;"/></g><!--reverse link CalculoDeCuota to SistemaFrances--><g class="link" data-entity-1="ent0003" data-entity-2="ent0005" id="lnk10" data-source-line="31" data-link-type="extension"><path d="M202.852,367.349 C168.112,386.269 139.95,401.62 110.08,417.9" style="stroke:#2E75B6;stroke-width:1;stroke-dasharray:7,7;" fill="none" id="CalculoDeCuota-backto-SistemaFrances" codeLine="31"/><polygon points="218.66,358.74,199.983,362.08,205.722,372.618,218.66,358.74" fill="none" style="stroke:#2E75B6;stroke-width:1;stroke-linejoin:miter;stroke-miterlimit:10;"/></g><!--link CreditoRequest to TipoPlan--><g class="link" data-entity-1="ent0006" data-entity-2="ent0002" id="lnk11" data-source-line="32" data-link-type="dependency"><path d="M343.01,74.58 C330.81,95.17 315.859,120.408 301.409,144.798" style="stroke:#2E75B6;stroke-width:1;stroke-dasharray:7,7;" fill="none" id="CreditoRequest-to-TipoPlan" codeLine="32"/><polygon points="298.86,149.1,306.889,143.396,301.409,144.798,300.006,139.318,298.86,149.1" fill="#2E75B6" style="stroke:#2E75B6;stroke-width:1;stroke-linejoin:miter;stroke-miterlimit:10;"/></g></g></svg>